<?xml version="1.0" encoding="UTF-8" standalone="no"?>
<svg
   xmlns:dc="http://purl.org/dc/elements/1.1/"
   xmlns:cc="http://creativecommons.org/ns#"
   xmlns:rdf="http://www.w3.org/1999/02/22-rdf-syntax-ns#"
   xmlns:svg="http://www.w3.org/2000/svg"
   xmlns="http://www.w3.org/2000/svg"
   xmlns:sodipodi="http://sodipodi.sourceforge.net/DTD/sodipodi-0.dtd"
   xmlns:inkscape="http://www.inkscape.org/namespaces/inkscape"
   sodipodi:docname="logo1.svg"
   inkscape:version="1.0 (4035a4fb49, 2020-05-01)"
   id="svg921"
   version="1.1"
   viewBox="0 0 105.83333 24.870833"
   height="94"
   width="400">
  <defs
     id="defs915" />
  <sodipodi:namedview
     units="px"
     inkscape:window-maximized="1"
     inkscape:window-y="-8"
     inkscape:window-x="-8"
     inkscape:window-height="1027"
     inkscape:window-width="1920"
     showgrid="false"
     inkscape:document-rotation="0"
     inkscape:current-layer="layer1"
     inkscape:document-units="mm"
     inkscape:cy="145.02974"
     inkscape:cx="330.18439"
     inkscape:zoom="1.4"
     inkscape:pageshadow="2"
     inkscape:pageopacity="0.0"
     borderopacity="1.0"
     bordercolor="#666666"
     pagecolor="#ffffff"
     id="base" />
  <metadata
     id="metadata918">
    <rdf:RDF>
      <cc:Work
         rdf:about="">
        <dc:format>image/svg+xml</dc:format>
        <dc:type
           rdf:resource="http://purl.org/dc/dcmitype/StillImage" />
        <dc:title></dc:title>
      </cc:Work>
    </rdf:RDF>
  </metadata>
  <g
     id="layer1"
     inkscape:groupmode="layer"
     inkscape:label="Слой 1">
    <path
       id="path28"
       d="m 1.1117402,22.333225 c 0.2605057,-3.179985 1.176236,-6.055986 2.4305374,-7.633524 l 1.0489096,-1.319204 h 2.937886 2.9378848 l -0.123843,1.055378 c -0.111776,0.952478 -0.04909,1.055367 0.643216,1.055367 0.696836,0 0.755418,-0.09934 0.639827,-1.084258 l -0.127234,-1.084236 3.210237,0.116872 3.210237,0.116872 0.818519,1.231252 c 1.115859,1.678551 1.965295,4.622958 2.156486,7.475081 l 0.159208,2.375003 h -4.682029 -4.682028 v -2.110725 c 0,-2.169707 -0.161436,-2.416161 -1.242784,-1.897199 -0.329617,0.158192 -0.444937,0.705253 -0.444937,2.110735 v 1.897189 H 5.4623999 0.92296752 Z m 10.5778028,-4.37947 c 0,-1.986734 -0.03921,-2.110734 -0.667432,-2.110734 -0.599198,0 -0.682265,0.188806 -0.812564,1.846898 -0.171594,2.18356 -0.107769,2.374561 0.793377,2.374561 0.651674,0 0.686619,-0.10744 0.686619,-2.110725 z M 6.5004023,12.237188 C 6.4408285,11.995324 6.3235053,11.401691 6.23969,10.917974 5.9564885,9.2835396 4.3443595,6.9975428 2.874176,6.1456874 L 1.4749569,5.3349307 5.8087098,5.3342197 c 5.1132352,-0.001 6.7356622,0.43086 8.0345792,2.1399238 0.942948,1.2407234 2.065554,3.7741675 2.065554,4.6614595 0,0.777266 -3.598069,0.790418 -3.836294,0.01394 -0.08905,-0.290241 -0.401525,-0.527695 -0.694389,-0.527695 -0.292864,0 -0.532479,0.237454 -0.532479,0.527695 0,0.422328 -0.422913,0.527673 -2.1184788,0.527673 -1.4494888,0 -2.1526861,-0.138865 -2.2267999,-0.439741 z m 5.1891407,-1.52878 c 0,-1.1091667 -0.941688,-2.6047358 -1.640078,-2.6047358 -0.6340256,0 -0.6500465,0.04802 -0.2644088,0.7915097 0.2257808,0.4353407 0.5612388,1.1477201 0.7454618,1.5830611 0.385007,0.909805 1.159025,1.063516 1.159025,0.230165 z M 10.00182,7.4091265 C 10.00182,7.0336498 8.8581054,6.2289984 7.7515247,5.8259354 7.1200388,5.5959307 7.1487331,5.6796327 8.0328145,6.6465261 8.9966603,7.7007005 10.00182,8.0899892 10.00182,7.4091265 Z M 0.28778353,3.6183684 C 0.53431847,2.37608 1.4709903,1.1014236 2.5668793,0.51688273 c 0.8007036,-0.42708077 5.747221,-0.66397254 5.747221,-0.27521427 0,0.092423 -0.3969489,0.58579387 -0.8821086,1.09634614 C 6.9468328,1.848587 6.3755269,2.7881847 6.1624255,3.4260442 5.7976131,4.5179899 5.6929935,4.5857933 4.3723089,4.5857933 c -1.1450817,0 -1.4042303,-0.1130429 -1.4112131,-0.6156458 -0.00802,-0.5863051 -0.022203,-0.5863051 -0.2952627,0 -0.1985342,0.4262993 -0.6378244,0.6156458 -1.4283745,0.6156458 -1.10446969,0 -1.13540946,-0.031572 -0.94967507,-0.9674249 z M 3.5322233,2.4335387 c 0,-0.1934969 -0.1265785,-0.2539629 -0.2812849,-0.1343743 -0.1547074,0.1196087 -0.281289,0.3757469 -0.281289,0.5692239 0,0.193477 0.1265786,0.2539429 0.281289,0.1343643 C 3.4056427,2.8831439 3.5322233,2.6270357 3.5322233,2.4335588 Z"
       style="fill:#000000;stroke-width:0.31457" />
    <text
       transform="scale(0.94827393,1.0545476)"
       id="text74"
       y="15.052454"
       x="24.310072"
       style="font-style:normal;font-variant:normal;font-weight:bold;font-stretch:normal;font-size:9.52283px;line-height:1.25;font-family:Roboto;-inkscape-font-specification:'Roboto, Bold';font-variant-ligatures:normal;font-variant-caps:normal;font-variant-numeric:normal;font-variant-east-asian:normal;fill:#000000;fill-opacity:1;stroke-width:0.892758"
       xml:space="preserve"><tspan
         style="fill:#000000;fill-opacity:1;stroke-width:0.892758"
         y="15.052454"
         x="24.310072"
         id="tspan72"
         sodipodi:role="line">РЕГИОНДОРСТРОЙ</tspan></text>
  </g>
</svg>
